<svg xmlns="http://www.w3.org/2000/svg" viewBox="0 0 45.15 586.27">
	<path d="M3.57, 493.81c-.47-.9.14-1.58-.33-2.48.45-.4-.12-1, .27-1.41-.24-.7.22-1.27-.13-2, .36-.25.21-.6, 0-1a5.32, 5.32, 0, 0, 0-.13-2.73c.39-.37.17-.85, 0-1.32.5-.37-.14-1, .33-1.33-.31-1.74.19-3.32-.41-5.12.33-.38.21-.84, 0-1.32.09-.08.25-.15.2-.26a13.53, 13.53, 0, 0, 1, .16-3.55, 1.57, 1.57, 0, 0, 1, 0-1.32c-.42-1.08.3-1.94-.23-3, .39-.36.17-.84, 0-1.32.61-.4-.2-1.06.22-1.49-.44-.94.15-1.68-.45-2.65.42-.33.2-.79, 0-1.24.32-.37.2-.83, 0-1.32.6-.35-.09-.94.33-1.32-.43-1.52.29-2.82-.26-4.37a3.17, 3.17, 0, 0, 0, 0-2.56c.41-.33.2-.79, 0-1.24.32-.37.2-.83, 0-1.32.55-.41-.22-1.06.21-1.49-.31-.4.17-.65-.23-1.07a1.3, 1.3, 0, 0, 0, 0-1.32c.58-.4-.16-1.06.21-1.5-.47-.7.16-1.18-.3-1.88.29-.19.21-.45.28-.68-.27-1.17.22-2.2-.22-3.4.25-.3.18-.65-.1-1, .39-.37.17-.85, 0-1.33a.6.6, 0, 0, 0, .11-.93c0-.15.31-.23.22-.39-.28-1.3.24-2.44-.37-3.8.33-.35.19-.79, 0-1.24.32-.38.2-.84, 0-1.32a.61.61, 0, 0, 0, .11-.93.57.57, 0, 0, 0, 0-.88c.52-.44-.12-1.15, 0-1.68, 0-.27.43-.56, 0-.88.32-.37.2-.83, 0-1.32.24-.27.4-.55.1-.93, 0-.15.32-.23.22-.4-.48-.89.06-1.59-.33-2.47.3-.38.11-.86, 0-1.32a1.24, 1.24, 0, 0, 0, 0-1.24c.39-.39.1-.91-.09-1.41.34-.32.07-.76-.07-1.18.38-.46, 0-1.07-.12-1.63.58-.4-.16-1.06.21-1.5-.53-.71.16-1.18-.3-1.88.65-.92, 0-2.09.37-3.07-.23-.19, 0-.3-.2-.48.39-.36.17-.84, 0-1.32a2.91, 2.91, 0, 0, 0, 0-2.56c.42-.34.2-.79, 0-1.24.26-.08.21-.24.22-.4a6.88, 6.88, 0, 0, 0-.34-3.2, 4.93, 4.93, 0, 0, 0-.13-2.73c.39-.37.17-.85, 0-1.33a2.91, 2.91, 0, 0, 0, 0-2.56c.51-.78-.23-1.8.34-2.56-.4-1.25.34-2.28-.19-3.55.48-.88-.31-2, .11-2.9-.44-1.08.25-1.95-.22-3, .41-.36.22-.83, 0-1.32.61-.4-.2-1.06.22-1.49a1.76, 1.76, 0, 0, 1-.1-1.41c-.52-1.63.46-3-.07-4.62.39-.31.26-.73.08-1.15.47-.13, 0-.36, 0-.51s.18-.38.2-.62-.21-.82-.15-1.12.22-.23.22-.4-.18-.3-.2-.48.17-.59.16-.84a7.15, 7.15, 0, 0, 0-.18-1.72c.3-.4, 0-.92-.1-1.41.49-.41-.27-1.07.21-1.49C2, 356.68, 2.63, 356, 2, 355c.45-.79-.19-1.79.34-2.56-.42-.86.28-1.51-.27-2.39a2, 2, 0, 0, 0, .12-1.81, 3.25, 3.25, 0, 0, 0, 0-2.56c.54-1.26, 0-2.72-.23-4.13.5-.37-.13-1, .33-1.33-.47-1.26.24-2.29-.2-3.55.46-.32.13-.8, 0-1.23a1.35, 1.35, 0, 0, 0, 0-1.33c.55-.15, 0-.47.05-.65a4.78, 4.78, 0, 0, 0, .13-1.43c-.12-.41, 0-.39, 0-.73a16.72, 16.72, 0, 0, 0-.17-3c.44-.43-.17-1.05.21-1.49-.27-.35.08-.57-.26-.93a1.59, 1.59, 0, 0, 0-.12-1.63.6.6, 0, 0, 0, .1-.93c.46-.91-.17-2, .2-3a4.83, 4.83, 0, 0, 1, 0-2.48c-.17-1.83.23-3.56-.13-5.43.33-.35.18-.79, 0-1.24a1.37, 1.37, 0, 0, 0-.1-1.4c.33-.38.12-.86, 0-1.33.44-.42-.17-1.05.22-1.49-.34-.41.17-.65-.24-1.07.39-.31.26-.73.08-1.15.09-.08.25-.15.19-.26a5.77, 5.77, 0, 0, 1-.07-2.64c-.59-2, .25-3.7-.3-5.69.41-.33.19-.79, 0-1.24.21-.1.31-.23.23-.39-.38-.78.15-1.39-.25-2.17a1.26, 1.26, 0, 0, 0, 0-1.32c.53-1.27, 0-2.72.2-4.06-.56-2, .31-3.74-.36-5.77.48-.37-.06-.93.33-1.32-.33-.79.35-1.39-.16-2.22.2-.11.3-.24.22-.4-.3-.79.19-1.42-.3-2.25.34-.32.07-.76-.07-1.18.42-.46-.11-1.09.3-1.55-.25-.76.39-1.34-.1-2.14.37-.17.19-.45, 0-.73.35-.47.08-1.06-.12-1.63a1.29, 1.29, 0, 0, 0-.1-1.41c.34-.35.16-.8, 0-1.24.35-.35.23-.78, 0-1.24.41-.33.2-.79, 0-1.24.39-.36.17-.84, 0-1.32.33-.35.18-.79, 0-1.24a1.35, 1.35, 0, 0, 0, 0-1.32, 3.44, 3.44, 0, 0, 0, .21-1.5, 7.54, 7.54, 0, 0, 0-.18-1.71A2.48, 2.48, 0, 0, 0, 2, 255c-.23-.19, 0-.3-.2-.48a2.87, 2.87, 0, 0, 0, .09-2.39c.49-.42-.27-1.08.22-1.49-.94-2.72.35-5-.43-7.69a2.62, 2.62, 0, 0, 0-.1-2.13C2, 240, 1.48, 239, 2, 238.17c-.28-.34.15-.55-.27-.92.35-.45-.05-1-.21-1.58.4-.43-.24-1.07.22-1.49-.25-1.53.49-2.88.05-4.45.42-.4-.17-1, .27-1.41-.35-.41.25-.63-.24-1.07a1.54, 1.54, 0, 0, 0, .13-1.8.45.45, 0, 0, 0, .22-.4c-.28-.93, 0-1.75-.36-2.7.25-.24.16-.55, 0-.87.09-.08.25-.15.2-.25-.44-.82.33-1.4-.16-2.23.33-.35.18-.79, 0-1.24a1.38, 1.38, 0, 0, 0, 0-1.32c.33-.35.18-.79, 0-1.24.39-.36.17-.84, 0-1.32.45-.89-.1-2, .11-2.9-.53-2, .4-3.68-.3-5.68.33-.38.2-.84, 0-1.33.64-1.19-.08-2.64.31-3.88-.42-.43.23-.64-.23-1.07.38-.32.25-.73.07-1.16a1.33, 1.33, 0, 0, 0, 0-1.32c.3-.41, 0-.92-.09-1.41.09-.08.25-.14.19-.25a11.27, 11.27, 0, 0, 1, .29-3c-.77-1.34.21-2.34-.4-3.65.41-1.41-.16-3, .19-4.42-.48-1.14.27-2-.19-3.18.41-.39.12-.9-.1-1.41.13-.08.19-.15.19-.26a18.39, 18.39, 0, 0, 0-.3-2.24c.16-.27.35-.52, 0-.88a2.48, 2.48, 0, 0, 0, .27-.68c-.41-.66.15-1.14-.24-1.8.3-.4, 0-.91-.09-1.4.38-.32.25-.73.07-1.16.65-1.12, 0-2.49.48-3.63a1.65, 1.65, 0, 0, 1, 0-1.24c-.53-1.2-.14-2.22-.45-3.38.64-1.43-.43-3.2.16-4.64-.23-.19, 0-.3-.21-.48a1.35, 1.35, 0, 0, 0, 0-1.32, 3, 3, 0, 0, 0-.08-2.65c.3-.43.09-.95-.15-1.49.43-.82-.1-1.82.28-2.65-.33-.45, 0-.77-.34-1.23.53-.36-.1-.95.32-1.33-.25-1.05.26-2-.22-3a3.85, 3.85, 0, 0, 0, 0-2.7, 1.5, 1.5, 0, 0, 0, 0-1.32c.47-.42-.14-1.05.21-1.5-.31-.45-.06-.79-.35-1.23.09-.08.25-.15.2-.26-.43-.44.13-.7-.29-1.15.53-1.24, 0-2.68.25-4-.24-.22, 0-.35-.26-.56.47-1.15, 0-2.49.48-3.64-.45-1.25.33-2.27-.2-3.54.58-.4-.16-1.06.21-1.5-.55-1, .05-1.69-.44-2.64a.6.6, 0, 0, 0, .1-.93c.15-.12.25-.24.22-.39-.26-1.52.13-2.9-.31-4.45.43-.43-.25-1.07.21-1.49-.38-1.71.22-3.23-.29-5, .34-.35.15-.79, 0-1.24.38-.17.19-.45, 0-.73a1.36, 1.36, 0, 0, 0, .13-1.43c0-.16.31-.24.22-.4-.3-1.91.4-3.62-.24-5.6.41-.89, 1.13-.89, 2-1.37.45.31, 1, 0, 1.58-.21.35.34.79.19, 1.24, 0a1.28, 1.28, 0, 0, 0, 1.32, 0c.12.52.61.08.93.11.14, 0, .25.23.39.22.39, 0, .85-.33, 1.24-.35, 0, 0, .21.19.25.2a1.92, 1.92, 0, 0, 0, 1.16-.3c.08.09.14.25.25.2, 1.63-.34, 3, .76, 4.73-.26.23.33.54.21.87, 0, 1.08.48, 2.59.29, 3.17, 2.14a2.53, 2.53, 0, 0, 0, .16, 1.49c-.1.08-.25.15-.2.25.48.85-.26, 1.47.22, 2.31a2.73, 2.73, 0, 0, 0-.15, 2.31c-.21.11-.31.24-.23.4.28.76-.14, 1.38.25, 2.16-.44.89.28, 2-.12, 2.9.43, 1.52-.29, 2.82.26, 4.36-.41.83.08, 1.82-.29, 2.65a21, 21, 0, 0, 1, 0, 3.8c.37.37-.14.56.26.93, 0, .15-.32.23-.23.4.51.9-.07, 1.59.33, 2.47-.47.81, 0, 1.81-.28, 2.65.42, 1.52-.29, 2.82.26, 4.36a3.17, 3.17, 0, 0, 0, 0, 2.56c-.3.41, 0, .92.09, 1.41-.34.35-.15.8, 0, 1.24-.36.32-.2.74-.08, 1.15-.36.37-.13.85, 0, 1.33-.53.36.1.94-.33, 1.32.38, 1.17-.1, 2.17.45, 3.38-.36.19-.1.51-.22.76.53, 1.15.1, 2.11.34, 3.2-.39.32-.26.74-.08, 1.16-.44.86.29, 1.95-.17, 2.82.27.41, 0, .72-.13, 1.07.46.91-.11, 1.63.38, 2.56-.53.36.1.94-.32, 1.32a1.31, 1.31, 0, 0, 1-.08, 1.16c.18, 1.49-.56, 2.81.32, 4.44a1.84, 1.84, 0, 0, 0, .12, 1.27c-.48.47.22, 1.16-.24, 1.63.37.83-.34, 1.45.22, 2.31-.33.35-.19.79, 0, 1.24-.49.2-.06.57, 0, .87-.66, 1.36.14, 3-.33, 4.39a5.27, 5.27, 0, 0, 1, .11, 2.88c.34.6-.07, 1.06.26, 1.65a6.75, 6.75, 0, 0, 0, .12, 4c-.41, 1, .08, 2.06.42, 3.15-.43.43, 0, 1-.21, 1.5.77, 1.85-.37, 3.34-.1, 5.09-.09.08-.25.15-.2.26a3.6, 3.6, 0, 0, 1, 0, 2.47c.37.37-.14.56.26.93, 0, .15-.32.23-.22.4.39, 1.27-.23, 2.34.25, 3.63-.49.42.27, 1.07-.21, 1.49a4.3, 4.3, 0, 0, 1, 0, 2.56c.23, 1.48-.33, 2.81.26, 4.36-.53.41.17, 1.06-.21, 1.5.46.89-.12, 1.58.33, 2.47-.39.32-.26.73-.08, 1.16a1.33, 1.33, 0, 0, 0, 0, 1.32, 1.08, 1.08, 0, 0, 0, 0, 1.24c-.39.36-.16.84, 0, 1.32-.56.87.31, 2-.12, 2.9.23.19, 0, .3.2.48-.32.38-.2.84, 0, 1.32-.34.35-.24.78, 0, 1.24a3.27, 3.27, 0, 0, 0-.1, 2.39, 3.52, 3.52, 0, 0, 0, 0, 2.48c-.33.4-.23.88.09, 1.41-.45.86.13, 1.92-.17, 2.82a1.33, 1.33, 0, 0, 1, 0, 1.23c.31.65-.27, 1.12.24, 1.8-.6, 1, .19, 2.28-.2, 3.33.23.19, 0, .3.2.48-.29.38-.1.85, 0, 1.32-.34.25-.35.56-.1.93a4, 4, 0, 0, 0-.07, 2.62, 1.38, 1.38, 0, 0, 0, 0, 1.32, 3, 3, 0, 0, 0, 0, 2.56c-.45.33-.13.8, 0, 1.24-.09.08-.25.15-.2.25.23, 1-.24, 1.86.11, 2.88a4.38, 4.38, 0, 0, 0-.1, 2.39c-.48.42.28, 1.07-.21, 1.49.53.93-.06, 1.65.39, 2.56-.51.78.15, 1.78-.35, 2.57a6, 6, 0, 0, 1, 0, 2.47, 1.52, 1.52, 0, 0, 1, .09, 1.41c.48, 1.24, 0, 2.29.28, 3.49a2.06, 2.06, 0, 0, 0-.2, 1.86c-.4.46.24, 1.12-.16, 1.58.42.91, 0, 1.65.39, 2.55-.33.36-.11.81, 0, 1.24-.32.28-.26.64, 0, 1, 0, .15-.32.23-.22.39.39, 2.78-.49, 5.32.26, 8.17-.35.39-.16.89.1, 1.4-.34.42, 0, 1, .15, 1.49-.33.35-.18.8, 0, 1.24a5.47, 5.47, 0, 0, 0-.28, 3.38c-.38.32-.25.73-.08, 1.16-.29.38-.1.85, 0, 1.32a1.29, 1.29, 0, 0, 0, .1, 1.41c-.42.7.13, 1.58-.29, 2.28.35.41-.26.63.23, 1.07-.41.33-.2.79, 0, 1.24-.38.36-.16.84, 0, 1.32-.41.33-.2.79, 0, 1.24-.39.36-.17.84, 0, 1.32-.2.11-.3.24-.22.4.33.77-.26, 1.36.25, 2.16-.21.11-.31.24-.23.4.25, 1.53-.06, 3, .24, 4.5-.16.26-.35.52, 0, .87-.45.43.17, 1.06-.22, 1.5.36.46, 0, .77.35, 1.23-.49.81.06, 1.82-.29, 2.65.4.47-.08.76.35, 1.24a1.33, 1.33, 0, 0, 0, 0, 1.32c-.53.36.1.94-.33, 1.33.34.62-.23, 1.07.18, 1.71-.5, 1.39.09, 3-.32, 4.4.23.19, 0, .29.2.47-.44.43.15, 1.06-.22, 1.5.31.4-.17.65.24, 1.07-.39.36-.17.84, 0, 1.32a6.47, 6.47, 0, 0, 0, .28, 4.22, 3.11, 3.11, 0, 0, 0-.15, 2.31c-.54.77, 0, 1.75-.34, 2.56a5.83, 5.83, 0, 0, 1, 0, 2.56c.23.19, 0, .3.2.48-.3.38-.11.86, 0, 1.32-.44.43.16, 1.06-.21, 1.5.56, 2.15-.15, 4.06.27, 6.19-.09.08-.25.15-.19.25.57, 2.38-.52, 4.44.22, 6.84-.53.75.07, 1.72-.4, 2.48.52, 1-.1, 1.69.44, 2.65a3.34, 3.34, 0, 0, 0, 0, 2.47c-.55.41.22, 1.07-.22, 1.5.55, 1.71-.3, 3.15.38, 4.89a3, 3, 0, 0, 0, 0, 2.11c-.43.31-.16.75-.07, 1.16-.09.08-.25.15-.2.25.25.81-.35, 1.45.22, 2.31-.3.43, 0, 1, .15, 1.49-.39.24-.2.6-.1.93a1.06, 1.06, 0, 0, 0-.11, 1.3, 3.32, 3.32, 0, 0, 0-.09, 2.39c-.4.44.19, 1.06-.21, 1.49.24, 1.2, 0, 2.3.28, 3.49-.39.22-.12.57, 0, .88a1.33, 1.33, 0, 0, 0, .09, 1.4c-.38.32-.25.73-.07, 1.16-.53.36.1.94-.33, 1.32.34.5.05, 1, 0, 1.33s.25.59.21.84-.22.27-.23.4c0, .32.25.71.18, 1s-.21.17-.22.4.27.73, 0, 1.09a1.72, 1.72, 0, 0, 1, .09, 1.41c.54, 1.9-.25, 3.56.13, 5.43-.54, 1.24.13, 2.71-.25, 4a1.52, 1.52, 0, 0, 1, .1, 1.41c.57, 1.3-.21, 2.35.25, 3.63-.6.4.14, 1.05-.21, 1.49.76, 2.07-.49, 3.76.27, 5.83-.44.43.17, 1.05-.21, 1.49.37.37-.13.56.26.93-.42.46.11, 1.09-.3, 1.55.28.42, 0, .73-.13, 1.07.37.36-.13.56.26.93-.36.25-.21.59, 0, .95a17.75, 17.75, 0, 0, 0-.06, 3.72c-.36.37-.13.85, 0, 1.32-.09.08-.25.15-.19.26.43.45-.13.71.29, 1.15-.39.32-.26.73-.08, 1.16a1.38, 1.38, 0, 0, 0, 0, 1.32c-.31.45, 0, 1, .21, 1.57a.74.74, 0, 0, 0-.13, 1.07c-.35.38-.25.83, 0, 1.33-.52.41.24, 1.07-.21, 1.49.37.36-.14.56.26.93-.15.12-.25.24-.22.39.33, 1.14-.05, 2.14.39, 3.29-.48.38.06.94-.33, 1.33.27.34-.08.57.26.93, 0, .15-.31.23-.22.39.4.88-.22, 1.57.33, 2.48-.46.81.08, 1.82-.29, 2.65.3.44, 0, .77.35, 1.23-.21.11-.3.24-.22.4.3.69-.44, 1.18.07, 1.91-.53.87.26, 2-.12, 2.9a14.24, 14.24, 0, 0, 1, .09, 3.38c.37.36-.14.56.26.93-.48.47.21, 1.16-.24, 1.63a16.75, 16.75, 0, 0, 1-.17, 3.55, 1.47, 1.47, 0, 0, 1, 0, 1.32c.42.89-.24, 1.57.33, 2.48-.09.08-.25.14-.2.25, 0, 1.71-.6, 3.3-.1, 5.1-.47.42.14, 1-.21, 1.49.26.39-.13.66.23, 1.07-.45.4.12, 1-.27, 1.41.35.41-.25.63.24, 1.07-.61.39.21, 1.06-.21, 1.49.45, 2.4-.07, 4.62.33, 7-.14.12-.24.24-.22.39.53, 1.25-.12, 2.27.28, 3.49-.39.36-.28, 1.05-.32, 1.33s.21.29.2.48-.45.73-.19, 1c-.37-.13-.64-.72-1.08-.5a9.81, 9.81, 0, 0, 0-2.15-2.46l-.26.18c-.4-.7-.95-.63-1.36-1.29l-.25.17a2.5, 2.5, 0, 0, 0-2.32-.88c-1.05-.71-2.23-.8-3.25-1.72-.6.36-.94-.7-1.55-.29-.19-.29-.38-.56-.68-.28a3, 3, 0, 0, 0-2.79-.32c-.54-.45-1.26, 0-1.77-.63l-.26.17" />
	<path d="M5.47, 502.57c1.08, 0, 2.22-.4, 3.13.46A4.29, 4.29, 0, 0, 1, 11, 504c.9-.09, 1.6.8, 2.51.63.12.3.31.15.43.45, 1-.13, 1.8, 1, 2.77, 1.19l.57.84c.41-.24.62.54, 1, .27.78, 1.26, 1.76, 1.52, 2.53, 2.82l.25-.17c.35.6.65.74.85, 1.26l3.74-1.55a.6.6, 0, 0, 0, .3-.82c.21-.42, 1-.73.75-1.24.58-.33.39-.8.95-1.14-.14-.21.1-1, .35-1.46a7.86, 7.86, 0, 0, 1, 1.31-1.51s-.12-.15-.11-.16c.84-.87, 1.4-1.93, 2.4-2.25l.93-.63c.66.08, 1.54-.93, 2.29-1.31a15, 15, 0, 0, 0, 2.56-1.12c.32-.12, 1-.19, 1.06-.23a3.42, 3.42, 0, 0, 1, 1.46-.38, 6.47, 6.47, 0, 0, 1, 1.19-.07c.44.06.93-.06, 1.23, 0s.63, 0, .74, 0, .13.32.22.33c.68.1.32.94.67, 1.52-.15.12-.25.24-.23.39a7.39, 7.39, 0, 0, 1-.48, 2.91L32.81, 559.65c-.3-.09-.6-.17-.91-.24a21.22, 21.22, 0, 0, 0-12.11, 1.19L3.24, 508.51c.09-.08.25-.15.19-.26-.87-1.19-.29-2.1-.84-3.23.45-.74.39-1.58, 1.45-2.21.33.14.78-.28, 1.18-.43C5.3, 502.47, 5.36, 502.63, 5.47, 502.57Z" />
	<path d="M2, 87.93c1.3-.54, 2.33.32, 3.63-.26.37.5, 1-.13, 1.33.33.89-.34, 1.61.21, 2.56-.39.45.42, 1.13-.29, 1.57.16.68-.46, 1.13.23, 1.8-.24a3.42, 3.42, 0, 0, 0, 1.84.35, 3.23, 3.23, 0, 0, 0, 1.4-.1c.47.48, 1.16-.21, 1.64.25.36-.38.56.13.93-.27.46.48, 1.16-.21, 1.63.24, 1.27-.52, 2.27.38, 3.55-.19.1.2.23.3.39.22, 1.17-.24, 2.23.08, 3.43-.37.24.31.53.31.88, 0a7.52, 7.52, 0, 0, 0, 3.63.11c.08.09.15.25.25.2A10, 10, 0, 0, 1, 35, 88c.8-.34, 1.39.41, 2.23-.16.37.5.95-.14, 1.32.33.37-.37.56.13.93-.26.15, 0, .23.31.4.22, 1.19-.69, 2.23, 1.56, 2.3, 2.48-.36.76-.25, 1.61-1.59, 2.19a33.2, 33.2, 0, 0, 1-5.38-.16c-.36.37-.56-.13-.93.26a1.09, 1.09, 0, 0, 0-1.29-.1c-.37-.39-.85-.17-1.32, 0-.87-.54-2, .31-2.9-.12-.9.37-1.63-.14-2.56.39A2, 2, 0, 0, 0, 24.37, 93c-1.3-.56-2.83, 0-4.19-.22a31.31, 31.31, 0, 0, 0-4.42.18c-.15, 0-.23-.31-.4-.22a6.31, 6.31, 0, 0, 1-2.56, 0c-1.27.43-2.32-.32-3.63.25-.17-.37-.45-.18-.73, 0-.27-.25-.56-.41-.93-.1-.27-.12-.52-.34-.87, 0a7.18, 7.18, 0, 0, 0-3.18-.17c-.23-.34-.55-.21-.88, 0-.28-.45-.71-.11-1.07-.13a4.35, 4.35, 0, 0, 1-1.19-1.4c.25-.17, 0-.43-.09-.67.32-.31.15-.7.13-1.07.22-.28.41-.56.25-.91l1.09-.74C1.78, 87.82, 1.84, 88, 2, 87.93Z" />
	<path d="M40.13, 492.92c-.59.43-1, .09-1.66.63-.55-.28-1.22, 0-1.91.44-.08-.09-.14-.25-.25-.2-1.17.61-2.38, 1.51-3.59, 2.31-.06-.05-.11-.16-.19-.11-1.84, 1.13-3.38, 2.2-5.13, 3.48.05.64-.95.52-1.31.77a2.19, 2.19, 0, 0, 1-.61-2.16c-.78-4.61.33-8.85-.42-13.46.21-.1.3-.23.22-.39-.33-.77.26-1.36-.24-2.17.42-.35.1-.86, 0-1.32.09-.08.25-.15.19-.26-.41-.85.17-1.52-.27-2.39.5-.36-.14-.95.33-1.32a6, 6, 0, 0, 1, 0-2.56c-.55-2.4.54-4.48-.28-6.93a.6.6, 0, 0, 0, .1-.93c0-.15.32-.23.22-.39-.39-1.27.32-2.33-.25-3.63.37-.17.18-.45, 0-.73a2.09, 2.09, 0, 0, 0, 0-1.75c.42-.33.2-.79, 0-1.24.21-.1.3-.23.22-.39-.32-1.92.35-3.64-.38-5.63.4-.46-.25-1.12.16-1.58-.38-.36.13-.56-.26-.93a3.55, 3.55, 0, 0, 0, 0-2.7c.49-.42-.27-1.07.21-1.49-.37-.85.19-1.53-.27-2.39.39-.32.26-.73.08-1.16.2-.1.3-.23.22-.39-.23-1.46.15-2.8-.35-4.31.35-.35.25-.78, 0-1.24.44-.74.11-1.63.46-2.39-.27-.37.19-.6-.18-1, .36-.42.07-1-.15-1.49.09-.08.25-.15.2-.25-.42-.69.06-1.21-.3-1.89.41-1.06-.16-2.32.28-3.38-.23-.19, 0-.3-.2-.48.5-.36-.14-.95.33-1.32-.82-3.4.07-6.47-.53-9.82.55-.39, 0-1, .07-1.52, 0-.22.19-.42.19-.62a26, 26, 0, 0, 0-.08-2.65c.32-.28.27-.63.05-1, .46-.45-.13-1.1.3-1.55-.41-1, .1-1.74-.5-2.73.43-.43-.25-1.07.21-1.49-.27-3.64.36-7.1-.34-10.81a.6.6, 0, 0, 0, .1-.93c0-.15.32-.23.23-.4a1.28, 1.28, 0, 0, 1, .07-1.15, 9.59, 9.59, 0, 0, 1, .09-2.4c-.71-2.08.34-3.83-.47-5.93.47-1.23, 0-2.63.31-3.89-.26-.39.13-.66-.23-1.07.42-.4-.16-1, .27-1.41-.31-.4.17-.65-.24-1.06.42-.34.2-.79, 0-1.24.39-.37.17-.85, 0-1.33.58-1.2-.06-2.64.31-3.88a6.55, 6.55, 0, 0, 1, 0-2.57c-.55-1.2, 0-2.18-.45-3.37.32-.38.21-.84, 0-1.32.33-.5-.09-1.14.24-1.64-.26-.36, 0-.63.1-.93a7.35, 7.35, 0, 0, 1, 0-2.56c-.37-.36.14-.56-.26-.93.48-.46-.21-1.16.24-1.63-.34-.51, 0-1, 0-1.32s-.24-.63-.2-.85.23-.21.22-.39-.21-.31-.2-.48.21-.27.22-.4a1.48, 1.48, 0, 0, 0-.26-.92, 4, 4, 0, 0, 0, 0-2.56c.21-.11.3-.24.22-.4-.29-.76.2-1.37-.24-2.17a1.33, 1.33, 0, 0, 0-.1-1.4c.44-.43-.17-1.06.22-1.5-.34-.4.17-.64-.24-1.06.39-.32.26-.73.08-1.16.2-.11.3-.23.22-.39-.31-.72.32-1.26-.13-2, .09-.08.25-.15.2-.26-.3-.66.23-1.17-.3-1.88.35-.35.24-.78, 0-1.24.45-1.2.08-2.57.36-3.8-.25-.42.1-.72-.29-1.16.09-.08.25-.14.19-.25-.27-.54-.14-1-.57-1.57.39-.24.2-.6.1-.93a1, 1, 0, 0, 0, .1-1.3c.66-1.19-.27-2.68.31-3.88-.4-.67.29-1.12-.24-1.8.28-.19.2-.45.28-.68-.34-1.11.22-2.05-.34-3.21.48-.79-.09-1.77.35-2.56-.49-.93, 0-1.65-.39-2.56a1.24, 1.24, 0, 0, 0, 0-1.24c.36-.32.19-.74.07-1.16.39-.31.26-.73.08-1.15.39-.37.16-.85, 0-1.32.45-.23.15-.61, 0-1, .34-.42, 0-1-.15-1.49.53-.36-.1-1, .33-1.33-.31-.81.22-1.47-.22-2.3.09-.08.25-.15.2-.26-.39-.83.15-1.48-.22-2.31a1, 1, 0, 0, 0, .08-1.15c.31-.28.26-.63, 0-1, .21-.26.37-.52, 0-.88a6.92, 6.92, 0, 0, 0, .27-2.5, 6.13, 6.13, 0, 0, 0-.33-1.75c.34-.23.22-.54, 0-.87.42-.33.2-.79, 0-1.24.32-.38.2-.84, 0-1.32.44-.43-.16-1.06.22-1.5-.31-.4.17-.65-.24-1.06a3.34, 3.34, 0, 0, 0, .09-2.4c.44-.43-.24-1.07.22-1.49-.13-2.22.23-4.34-.2-6.62, 0-.15.32-.23.22-.39-.35-.8.3-1.41-.15-2.22a4.18, 4.18, 0, 0, 0, 0-2.57c.34-.35.19-.79, 0-1.23.46-.48-.23-1.17.1-1.67a7.13, 7.13, 0, 0, 1, .15-2.31, 1.43, 1.43, 0, 0, 1, 0-1.23c-.46-.68.23-1.13-.24-1.8a5, 5, 0, 0, 0, 0-2.57c.33-.37.21-.83, 0-1.32.09-.08.25-.15.2-.25a5.91, 5.91, 0, 0, 1, 0-2.48c-.25-.39.09-.67-.23-1.07.3-.38.15-.85, 0-1.32.41-.34.2-.79, 0-1.24.38-.37.16-.85, 0-1.32.33-.35.18-.8, 0-1.24.09-.08.24-.15.19-.26a37.2, 37.2, 0, 0, 1, .07-5.69c-.27-.39.2-.64-.24-1.06.51-.78-.15-1.79.35-2.57-.37-.36.13-.56-.26-.92.48-.47-.22-1.17.24-1.64-.37-.36.13-.56-.26-.93.43-1-.22-2.13.08-3.12-.37-1.88.27-3.56-.12-5.43.38-.37.16-.85, 0-1.33a4.22, 4.22, 0, 0, 0, 0-2.56c.37-.83-.06-1.81.28-2.65a1.35, 1.35, 0, 0, 1, 0-1.24c-.36-.45, 0-.77-.35-1.23.5-.37-.13-1, .33-1.33-.17-.18, 0-.28-.2-.47.61-1.69-.34-3.67.15-5.38-.34-.41.26-.64-.23-1.07.39-.36.17-.85, 0-1.32.59-.4-.16-1.06.21-1.5a7.28, 7.28, 0, 0, 1, .11-3.63c-.41-2.83.31-5.45-.37-8.33.2-.11.3-.23.22-.39-.26-1.56.31-3-.15-4.56.44-.43-.17-1.06.21-1.5-.22-.43, 0-.78-.35-1.23.39-.37.17-.85, 0-1.33a.74.74, 0, 0, 0, .18-1c.3-.12.15-.32.45-.43-.33-1.33.5-2.44-.14-3.83a.73.73, 0, 0, 0, 0-.87, 1.68, 1.68, 0, 0, 0, 0-1.69, 1.42, 1.42, 0, 0, 0-.21-1.57c.09-.08.24-.15.19-.26a4.58, 4.58, 0, 0, 1-.19-2.81c-.52-.66, 0-1.11-.32-1.74.41-1.1-.26-2.39.22-3.47-.17-.18, 0-.29-.2-.48a3.13, 3.13, 0, 0, 0, 0-2.56c.41-.33.2-.79, 0-1.24.39-.36.16-.84, 0-1.32.44-.43-.16-1.05.21-1.49-.35-.41.26-.64-.23-1.07.59-.35-.09-.94.33-1.33-.38-.36.13-.56-.27-.92.45-.48-.16-1.16.24-1.64a5.83, 5.83, 0, 0, 1, 0-2.56c-.43-.67.19-1.13-.24-1.8.21-.11.31-.23.23-.4-.29-.76.19-1.37-.25-2.16.39-.83-.13-1.83.29-2.65-.32-.79.35-1.39-.16-2.22.42-.34.2-.79, 0-1.24.39-.37.17-.85, 0-1.32a2.11, 2.11, 0, 0, 0, .13-1.81c.15-.12.24-.24.22-.39-.26-1.2.09-2.28-.28-3.49a1.06, 1.06, 0, 0, 0, 0-1.24c.6-1.2-.06-2.64.31-3.89-.33-.5-.06-1, 0-1.32s-.23-.72-.23-1.07c0, 0, .18-.19.19-.25.07-.48-.06-.94, 0-1.24s-.14-.6-.12-.9c0-.1.2-.13.2-.26, 0-.52-.05-.93, 0-1.32s-.06-.33, 0-.59a11, 11, 0, 0, 0-.34-3.94c.43-.4-.16-1, .27-1.41-.34-.41.26-.63-.23-1.07.5-.37-.14-1, .33-1.32-.47-2, .45-3.76, 0-5.77.2-.11.3-.24.22-.4a21.46, 21.46, 0, 0, 1, 0-4.81c-.23-.2, 0-.3-.2-.48.33-.55, 0-1.23-.44-1.91.37-.32-.07-.8-.06-1.18.31-.16.46-.35.19-.62l1.09-.75c.35.34.79.19, 1.24, 0a1.26, 1.26, 0, 0, 0, 1.32, 0c.34.42.79.2, 1.24, 0a2.42, 2.42, 0, 0, 0, 1.8.13, 2.32, 2.32, 0, 0, 0, 1.78-.1c.47.48, 1.15-.19, 1.63.24.18-.17.29, 0, .48-.2.36.39.84.16, 1.32, 0a.6.6, 0, 0, 0, .93.1c.6.57, 1.39.16, 1.95.89a7.87, 7.87, 0, 0, 1, 3-.17c1.51, 1.66.4, 2.81, 1.07, 4.3-.38.37-.16.85, 0, 1.33-.33.35-.18.79, 0, 1.23a1.35, 1.35, 0, 0, 0, .1, 1.41c-.49.42.27, 1.08-.21, 1.49a7.1, 7.1, 0, 0, 1, 0, 2.48c.47.9-.14, 1.58.33, 2.48-.09.08-.25.14-.19.25.35, 1.14, 0, 2.14.39, 3.29a3.69, 3.69, 0, 0, 0-.07, 2.26, 1.59, 1.59, 0, 0, 0, .13, 1.63c-.41.38-.13.9.09, 1.4-.53, 1.24.06, 2.69-.25, 4, .51.86-.28, 1.46.22, 2.31-.36.3-.26.68-.13, 1.07-.53, 1, 0, 2.25, 0, 3.3, 0, .48-.42.94, 0, 1.32-.35.39-.16.89.1, 1.41-.34.42, 0, 1, .15, 1.49a.74.74, 0, 0, 0-.13, 1.07, 3.34, 3.34, 0, 0, 0, 0, 2.56c-.38.32-.25.73-.07, 1.15a.88.88, 0, 0, 0-.08, 1.16c-.47.42.14, 1.05-.21, 1.49.34.46-.11.76.35, 1.24-.58.37-.08.92, 0, 1.38, 0, .23-.2.49-.13.7.16.5-.11.8.26, 1.3-.33.37-.21.83, 0, 1.32-.25.27-.41.55-.11.93, 0, .15-.31.23-.22.39a31.43, 31.43, 0, 0, 1, 0, 5.13, 4, 4, 0, 0, 1, 0, 2.56c.42.42-.23.64.23, 1.07-.39.31-.26.73-.08, 1.15-.47.89.27, 2-.11, 2.9.46.68-.24, 1.13.24, 1.8-.29.19-.21.45-.28.68a28, 28, 0, 0, 1, .24, 5.23, 4.6, 4.6, 0, 0, 1, .14, 2.73c.38.69, 0, 1.23.29, 1.89a1.46, 1.46, 0, 0, 0, .07, 1.55c-.21, 2.68.4, 5.53, 0, 8.19-.43.45-.45, 1-.72, 1.47.27, 1.05-.27, 1.94.22, 3-.49.18-.07.62-.1.93s-.56.82-.11, 1.29c-.55.13, 0, .5, 0, .65a4, 4, 0, 0, 0, 0, 2.48.44.44, 0, 0, 0-.23.39, 12.3, 12.3, 0, 0, 1, .53, 2.59c-.48.42.28, 1.07-.21, 1.49.42.81-.27, 1.41.16, 2.23-.39.36-.17.84, 0, 1.32-.21.1-.3.23-.22.39a26.68, 26.68, 0, 0, 1, 0, 5.13c.23.19, 0, .3.2.47a1.35, 1.35, 0, 0, 0, 0, 1.33c-.4.46.24, 1.12-.16, 1.58.69, 1.76, 0, 3.26.29, 4.95a3.32, 3.32, 0, 0, 0, 0, 2.42c-.44.47.17, 1.15-.24, 1.63.44, 1.5, 0, 2.82.35, 4.31, 0, .15-.32.23-.23.39.48, 1.26-.33, 2.28.2, 3.55-.45.32-.24.78, 0, 1.24-.42.35-.09.86, 0, 1.32-.31.45, 0, 1, .21, 1.57a3.91, 3.91, 0, 0, 0, .08, 2.65c-.37.17-.19.45, 0, .73-.6, 1.54-.21, 3.28-.5, 4.88.37, 1.26-.35, 2.32.26, 3.63-.44.42.17, 1-.22, 1.49.35.9-.2, 1.62.39, 2.56-.39.36-.17.84, 0, 1.32-.53.78, 0, 1.76-.35, 2.57.54, 1.51, 0, 2.81.35, 4.3, 0, .15-.32.23-.22.4.38.8-.45, 1.37.16, 2.22-.38.34, 0, .83.12, 1.27, 0, .15-.32.23-.22.39.37.8-.32, 1.4.16, 2.22-.09.08-.25.15-.2.26.42.86-.18, 1.52.27, 2.39-.48.42.28, 1.08-.21, 1.49.61, 1.56-.31, 2.82.26, 4.36a.45.45, 0, 0, 0-.22.4c.26.37, 0, .63-.11.93.38.36-.13.56.27.93-.48.47.21, 1.16-.24, 1.63.44, 1.26-.22, 2.3.19, 3.55-.3.4, 0, .92.1, 1.4-.34.35-.16.8, 0, 1.24a1.08, 1.08, 0, 0, 0, 0, 1.33c-.37.17-.19.45, 0, .73-.42.48-.11, 1.1, 0, 1.69a2.94, 2.94, 0, 0, 0, 0, 2.11c-.37.37-.14.85, 0, 1.32a3, 3, 0, 0, 0, 0, 2.56c-.44.43.16, 1.06-.21, 1.5.25.39-.09.66.23, 1.06a1.3, 1.3, 0, 0, 0, 0, 1.33, 3, 3, 0, 0, 0, 0, 2.56, 2.13, 2.13, 0, 0, 0-.13, 1.8.45.45, 0, 0, 0-.22.4c.34, 1.62-.1, 3.1.26, 4.72-.53.37.1.95-.32, 1.33.56, 2.64, 0, 5.06.43, 7.68-.5.37.13.95-.33, 1.33.46.67-.23, 1.12.24, 1.8-.54.46.16, 1.15-.24, 1.63.25.66-.21, 1.18.15, 1.86, 0, .15-.31.23-.22.4.37.72-.29, 1.25.13, 2-.43.48.12, 1.15-.24, 1.64.37.36-.13.56.26.93, 0, .15-.31.23-.22.39.31.82-.22, 1.47.22, 2.31-.36.42-.07, 1, .15, 1.49-.55.4.22, 1.06-.21, 1.49.34.7-.28, 1.22.21, 1.94-.61, 1.2.08, 2.65-.31, 3.89a6.31, 6.31, 0, 0, 1, 0, 2.56c.43.42-.22.64.24, 1.07-.5.39.09, 1-.27, 1.41.25, 1.36.15, 2.66.4, 4a1.47, 1.47, 0, 0, 0-.19, 1.35, 1.27, 1.27, 0, 0, 0, 0, 1.38c-.09.09-.25.15-.2.26.42.86-.18, 1.52.27, 2.39-.09.08-.24.15-.19.26.4.46-.09.76.35, 1.23-.21.11-.31.24-.23.4.28.76-.14, 1.38.25, 2.16a1.35, 1.35, 0, 0, 0, 0, 1.33c-.34.35-.19.79, 0, 1.23-.09.08-.25.15-.2.26a11.89, 11.89, 0, 0, 1-.11, 3.63c.41.66-.14, 1.14.24, 1.8-.49.37.14.95-.33, 1.33a5.55, 5.55, 0, 0, 1, 0, 2.56, 4, 4, 0, 0, 1, 0, 2.56, 3.39, 3.39, 0, 0, 1, 0, 2.56c.23, 2.29-.23, 4.44.16, 6.76-.44.42.17, 1.05-.21, 1.49.34.41-.18.65.24, 1.07-.32.45, 0, 1, .21, 1.57A1.46, 1.46, 0, 0, 0, 45, 386a5.56, 5.56, 0, 0, 0-.17, 3.55c-.44.42.17, 1-.22, 1.49.35.72, 0, 1.32.41, 2.05a.48.48, 0, 0, 0-.22.4c.25.65-.15, 1.26-.21, 1.86, 0, .34.14.71.1, 1s-.58.61-.11.93c0, .15-.31.23-.22.39.33, 1-.3, 1.75.56, 2.81a1.76, 1.76, 0, 0, 0, .09, 1.41, 6.1, 6.1, 0, 0, 0-.17, 3.55c-.38.32-.25.73-.07, 1.15-.21.11-.3.24-.22.4.21, 1.06-.11, 2, .42, 3.15a2.26, 2.26, 0, 0, 0, 0, 1.6c-.34.23-.22.55, 0, .88a.74.74, 0, 0, 0-.13, 1.07c-.39.31-.26.73-.08, 1.15-.41.39-.13.9.1, 1.41-.3.43, 0, 1, .15, 1.49a.6.6, 0, 0, 0-.1.93, 3.63, 3.63, 0, 0, 0-.07, 2.62c-.41.38-.12.9.1, 1.41-.09.08-.25.14-.2.25.53, 1.1-.18, 2, .23, 3-.54.46.15, 1.15-.24, 1.63.28.35-.16.56.26.93-.51.76-.1, 1.69-.4, 2.48a1.52, 1.52, 0, 0, 1, .09, 1.41c.63, 1.29-.25, 2.29.2, 3.54a4.18, 4.18, 0, 0, 0, 0, 2.57c-.27.1-.2.19-.22.39a7.06, 7.06, 0, 0, 0, 0, 2.93, 3.52, 3.52, 0, 0, 0, .13, 2.36c-.44.45.35, 1.14-.15, 1.58.32, 1.23-.36, 2.27.2, 3.55-.42.33-.2.79, 0, 1.23-.5.86.11, 1.93-.18, 2.82.26.39-.08.67.24, 1.07-.09.08-.25.15-.2.25a11.34, 11.34, 0, 0, 1-.11, 3.64c.23.19, 0, .29.2.47a.45.45, 0, 0, 0-.22.4, 8.78, 8.78, 0, 0, 1, .25, 2.9, 1.61, 1.61, 0, 0, 1, 0, 1.32c.31.42, 0, .73.29, 1.15-.42.23-.11.73-.13, 1.07, 0, .07-.24.11-.26.17s.19.19.18.26-.24.34-.25.53a5.85, 5.85, 0, 0, 0, .24, 2.17, 4.28, 4.28, 0, 0, 0-.07, 2.25c0, .15-.31.23-.22.4.37, 1.65-.21, 3.12.18, 4.78-.09.08-.25.15-.19.26.51, 1.8-.25, 3.36.46, 5.2-.4.19-.09.52.06.82-.32.37-.2.83, 0, 1.32a5.86, 5.86, 0, 0, 0-.17, 3.55c-.41.33-.19.79, 0, 1.24-.39.36-.17.84, 0, 1.32a.6.6, 0, 0, 0-.11.93c-.32.57-.15, 1.24-1.2, 1.67C42.58, 492.36, 41.24, 493.22, 40.13, 492.92Z" />
	<path d="M31.35, 561.88c.35.08.68.17, 1, .27l-4.41, 24.12L20.55, 563A19, 19, 0, 0, 1, 31.35, 561.88Z" />
	<path d="M4.83, 78.61c1.51-.36, 2.85.17, 4.36-.26.94.58, 2.1, 0, 3.08.37.66-.43, 1.13.19, 1.8-.24a1.06, 1.06, 0, 0, 0, 1.23, 0c.37.39.85.17, 1.33, 0, .1.21.23.3.39.22.73-.37, 1.26.3, 2-.12.38.56, 1-.1, 1.41.27.45-.43.71.12, 1.15-.3.43.44, 1.06-.17, 1.5.22.17-.17.28, 0, .47-.2, 1, .48, 2.1, 0, 3.07.37.19-.23.3, 0, .48-.21.82.43, 1.82-.07, 2.65.29.42-.42.64.23, 1.07-.23.84.45, 1.79.32, 2.65.65.19-.23.3, 0, .48-.2.36.39.84.17, 1.32, 0, .35.34.79.19, 1.24, 0, .36.53.94-.1, 1.32.33.88-.39, 1.6.06, 2.4.09a2.72, 2.72, 0, 0, 1, .63, 1.29c0, .38-.34, 1-.41, 1.38s0, .86-.59, 1.13c.09.14.21.29, 0, .37s-.21-.2-.34-.14a3.39, 3.39, 0, 0, 1-2.9.25c-.19.23-.3, 0-.48.2a.43.43, 0, 0, 0-.39-.22, 39.14, 39.14, 0, 0, 1-4.73-.1c-.4.3-.65-.17-1.07.23-.35-.33-.79-.18-1.24, 0a1.38, 1.38, 0, 0, 0-1.32, 0c-.35-.33-.79-.18-1.24, 0a1.28, 1.28, 0, 0, 0-1.32, 0, 3, 3, 0, 0, 0-2.57, 0A3.45, 3.45, 0, 0, 0, 20, 84c-.47-.48-1.15.19-1.63-.24-.19.23-.3, 0-.48.2a.45.45, 0, 0, 0-.4-.22c-1, .27-1.83-.33-2.84, 0a1.62, 1.62, 0, 0, 0-1.63.13c-.37-.5-.95.14-1.33-.33-1.25.31-2.35-.16-3.63.26-.31-.39-.73-.26-1.15-.08-.08-.09-.15-.25-.26-.19-.71.53-1.18-.16-1.88.29-1.13-.59-2.47-.07-3.55-.89-.15.12-.25, 0-.4.14C-.31, 81.79.35, 80.9, 0, 79.81a4, 4, 0, 0, 1, 1.51-1.39C2.62, 78.46, 3.81, 78.1, 4.83, 78.61Z" />
	<path d="M4, 43.6c.64.1, 1.49-.08, 1.81.13A1.29, 1.29, 0, 0, 1, 7, 43.8c1.57-.18, 3, .33, 4.62-.06.36.49.95-.14, 1.32.32.84-.31, 1.53.15, 2.39-.27a4.73, 4.73, 0, 0, 0, 3, .2, 3.39, 3.39, 0, 0, 0, 2.25.07c.15, 0, .24.31.4.22.78-.37, 1.35.31, 2.14-.1.86.45, 1.92-.13, 2.81.17a1.35, 1.35, 0, 0, 1, 1.24, 0c.41-.34.65.18, 1.07-.23.34.39.78.27, 1.24, 0, .08.09.15.25.25.2.85-.33, 1.59-.11, 2.45-.56a13.75, 13.75, 0, 0, 0, 4.45.78c.86-.51, 1.49.13, 2.34-.35.45.41, 1.09-.12, 1.55.29.61-.35, 1, .29, 1.3.84-.5, 2.38-4.19, 3.4-5.86, 2.75-.42.29-.7-.18-1.15.29-.43-.43-1.07.25-1.5-.21-.81.41-1.41-.27-2.22.16-.37-.5-.95.13-1.33-.33-.86.43-1.52-.21-2.39.27-.31-.38-.73-.25-1.15-.07-.7-.44-1.59.13-2.28-.3a3.79, 3.79, 0, 0, 1-2.57, 0c-1.67.34-3.15-.3-4.86.23-.34-.41-.79-.2-1.24, 0-.38-.45-.94.08-1.33-.32-.19.23-.3, 0-.48.2a.43.43, 0, 0, 0-.39-.22c-1.14.21-2.15-.25-3.32.16-.31-.3-.7-.16-1.1, 0-.15, 0-.23-.31-.4-.22-1.26.5-2.26-.36-3.54.2-.36-.53-.95.1-1.33-.33-.56.39-.92-.27-1.46, 0a5.06, 5.06, 0, 0, 1-1.2-1.76A2.79, 2.79, 0, 0, 0, 1, 44.33a2.3, 2.3, 0, 0, 1, 1.74-.69A3.16, 3.16, 0, 0, 1, 4, 43.6Z" />
	<path d="M3.17, 36.94c.08.09.15.24.26.19.85-.42, 1.52.18, 2.39-.27.31.38.73.25, 1.15.07a1.33, 1.33, 0, 0, 0, 1.32, 0, 1.08, 1.08, 0, 0, 0, 1.24, 0c.32.33.76.24, 1.13.22a15.28, 15.28, 0, 0, 0, 1.94-.22A1.31, 1.31, 0, 0, 0, 14, 37c.69.58, 1.58.13, 2.31.52.48-.32.89.07, 1.38, 0s.67-.28, 1-.32c0, 0, .2.19.26.2a2.7, 2.7, 0, 0, 0, 1.23-.35, 1.27, 1.27, 0, 0, 0, 1.41-.1c.43.31, 1, 0, 1.49-.15A2.55, 2.55, 0, 0, 0, 25.3, 37c.1.21.23.3.39.22, 1.78-.25, 3.44.12, 5.24-.24a1.16, 1.16, 0, 0, 0, 1.38, 0c.2.48.68.14, 1, .18s.61.57.93.11c.16, 0, .24.31.4.22.79-.32, 1.39.35, 2.22-.16, 1.24.68, 4-.56, 3.82, 1.83L39.57, 40a1.35, 1.35, 0, 0, 0-1.33, 0c-.72-.55-1.71.29-2.45-.18-.91.47-1.63-.1-2.56.39-.1-.21-.23-.3-.39-.22-1.54.28-2.93-.25-4.48.09a1.08, 1.08, 0, 0, 0-1.24, 0, 2.12, 2.12, 0, 0, 0-1.8-.12c-.37-.33-.84-.21-1.32, 0-.76-.47-1.71, 0-2.48-.4-.39.26-.67-.08-1.07.24-.36-.39-.84-.17-1.32, 0A.88.88, 0, 0, 0, 18, 39.77c-.17-.37-.45-.19-.73, 0a2.16, 2.16, 0, 0, 0-1.75-.05c-.07-.09-.14-.24-.25-.19a7.16, 7.16, 0, 0, 1-3.63-.11, 11.05, 11.05, 0, 0, 1-3.55-.17c-1, .35-1.77-.43-2.79.05-.36-.53-.94.1-1.32-.33-1.07.36-2, 0-3-.06L.34, 38c.28-.68.81-.83, 1.51-1C2.23, 37.28, 2.69, 37.13, 3.17, 36.94Z" />
	<path d="M2.28, 52.62C1.16, 53, .36, 53.89.7, 54.8c.08.17, 0, .29-.22.4.42.81-.26, 1.41.15, 2.22-.42.38.21, 1-.32, 1.33.2.48.42, 1, 0, 1.32.47.85-.27, 1.46.21, 2.31-.42.43.4, 1.1-.21, 1.49.22.51.38, 1, .09, 1.41.41, 1.17, 0, 2.2.45, 3.37-.42.48.24, 1.17-.24, 1.64.2, 1.71, 1.74, 2.08, 2.76, 2.79a.48.48, 0, 0, 1, .7.14c1.09-.23, 2.05.25, 3.16-.06a4.6, 4.6, 0, 0, 0, 2.31.15c.1, 0, .17.11.25.2.49-.25.95-.37, 1.32, 0a1.35, 1.35, 0, 0, 1, 1.33, 0c.79-.47, 1.4.06, 2.16-.24.16-.08.29, 0, .4.22.68-.53, 1.13.16, 1.8-.24a2.46, 2.46, 0, 0, 0, 1.69, 0c1, .5, 2.32-.18, 3.35.42.43-.46.65.19, 1.07-.23.37.46, 1-.17, 1.32.32, 2.1-.36, 4.05, 0, 6.11-.22.39.39.95-.15, 1.33.33a3.88, 3.88, 0, 0, 1, 2.56, 0c.19-.23.3, 0, .47-.2, 1.2.5, 2.63-.21, 3.81.36.43-.46.64.19, 1.07-.23.1-.06.17.1.25.19.28-.18.51-.14.81-.43, 2.16-.23, 1.9-2.59, 1.58-4, .35-.39-.24-1, .32-1.32-.46-.92.08-1.64-.38-2.56.38-.44-.23-1.07.21-1.49-.44-.84.09-1.5-.22-2.31.43-.38-.2-1, .33-1.33-.54-.95, 0-1.7-.44-2.64-.06-.11.1-.17.19-.25-.56-1.38.29-2.48-1-4-.56.11-1-.45-1.58-.16-.16.08-.29, 0-.39-.22-.48.2-1, .42-1.32, 0-.43.18-.84.31-1.16-.08A3.32, 3.32, 0, 0, 1, 34.44, 53c-.18.17-.29, 0-.48.2a1.45, 1.45, 0, 0, 0-1.24, 0A22, 22, 0, 0, 0, 29.17, 53c-.11.06-.17-.1-.25-.19-.44.37-.72-.06-1.15.29-.39-.43-1, .21-1.33-.33-.82.47-1.42-.21-2.22.16-.45-.44-1.14.34-1.58-.15a1.41, 1.41, 0, 0, 1-1.41.09c-.42.18-.84.31-1.15-.07-1.22.4-2.31.11-3.52.42A5.85, 5.85, 0, 0, 0, 13, 53.07, 9, 9, 0, 0, 0, 10.62, 53c-.4-.43-1, .16-1.41-.27-.42.41-.66-.1-1.07.23-1.24-.37-2.68.26-3.89-.3-.64.45-1.07-.24-1.71.18C2.43, 52.87, 2.36, 52.71, 2.28, 52.62ZM35.39, 66c-.33-.48, 0-.84-.41-1.32.09-.08.25-.15.2-.26-.68-1.25.15-2.21-.37-3.43.36-.39.17-.89-.09-1.4.22-.13.07-.33.16-.48-.38-.86.28-1.51.15-2.31.13-.1.3-.19.14-.34.64-.51, 1.13-1, 1.79-1, .21, 0, .33.46.57.1.25.58, 1.29].75, 1, 1.37.36.39.3.69.6, 1.07-.09.08-.25.15-.2.25.35, 1.31, 0, 2.48.37, 3.8-.09.08-.25.15-.19.26.53, 1.56-.3, 2.86.32, 4.44a2.16, 2.16, 0, 0, 0-.13, 1.8c-.1.18-.4.32-.39.51, 1.12, 1.41-1.35, 3.25-2.71, 3.07l-1-1.51A21.78, 21.78, 0, 0, 1, 35.39, 66Zm-8.24, 1.78c.09-.08.25-.14.2-.25-.34-1.31.25-2.44-.37-3.8.5-.37-.14-1, .33-1.33-.23-.19, 0-.29-.2-.47a.48.48, 0, 0, 0, .22-.4c-.41-.78.12-1.39-.25-2.16a.46.46, 0, 0, 0, .23-.4c-.31-.64.27-1.12, 0-1.75, 1.49-2.88, 3.87-.26, 4.07, 1.66-.54.36.1, 1-.33, 1.33a1.61, 1.61, 0, 0, 1, 0, 1.24c.31, 1-.22, 1.75.14, 2.72-.38, 1.18.38, 2.56-.06, 3.72.23.19, 0, .3.2.48-.35.3-.25.68-.13, 1.07l-.34.23c.37.29-.2.4.09.67-1.28, 1.53-3, .89-3.61-1C27.66, 68.88, 27.33, 68.31, 27.15, 67.76Zm-7.66-1.17c.39-.34.28-.78, 0-1.24a.46.46, 0, 0, 0, .23-.4c-.41-1.2-.1-2.26-.37-3.43, 0-.15.32-.23.22-.4-.4-.46.09-.76-.35-1.23.54-.36-.09-1, .33-1.33-.37-.36.14-.56-.26-.92, 0-.16.32-.24.22-.4-.31-.64, 0-1.17.75-1.61-.08-.14-.21-.28, 0-.37.08.09.14.25.25.2.71-.53, 1.33-.58, 1.8.12l.26-.17.62.93-.25.17c.84, 1.08-.05, 1.84.62, 2.89-.6.35.09, 1-.33, 1.33.42, 1.76-.33, 3.3.41, 5.12-.42.33-.2.79, 0, 1.24-.54.8.05, 1.81-.29, 2.65.23.19, 0, .29.2.47-.4.64-.27, 1.24-1, 1.56a8.54, 8.54, 0, 0, 1-2-.24c-.51-.38-.63-1.15-1-1.65.42-.43-.3-1.08.22-1.49C19.11, 67.68, 20, 67.27, 19.49, 66.59Zm-7.88.18c-.36-1.43.26-1.83, 0-3.21.22-.56-.22-1.84, 0-2.46-.2-.54, 0-.73-.26-1.3, 0, 0, .12, 0, .09-.14-.25-.7-.13-1-.39-1.69.23-.26-.33-1.37-.07-1.59-.25-.63.17-.56, 0-1.08l.39-.13c0, .11.09.27.14.27.58.1, 1.09, 1, 1.63, 1.48a3.27, 3.27, 0, 0, 1, 1.58, 2.46c-.2.37.09, 1.27, 0, 1.73a1.3, 1.3, 0, 0, 0, .12.49c-.12.13-.2.31, 0, .76-.21.17, 0, .67, 0, 1.08, 0, .56-.31, 1-.07, 1.74-.15.27, 0, .88.16, 1.45, 0, 0-.12, 0-.09.14.3, 1.21-.24, 1.53.09, 2.76-.09.28-.33.38-.24.84l-.91.31c-.05-.11-.09-.27-.14-.27-.42, 0-.78-.65-1.19-.77A4.33, 4.33, 0, 0, 1, 11.61, 66.77ZM5.17, 55.56c0, .11.09.27.15.27.42-.22.77.55, 1.16.66A9, 9, 0, 0, 1, 7, 57.94s-.13, 0-.1.14c.27, 1.2-.14, 1.69.21, 3-.3.11.14, 1, 0, 1.21.14.28, 0, .31.17.59-.08, 0-.12.12-.11.26a18, 18, 0, 0, 0, .33, 3.15c-.18.16-.1.58, 0, 1.07-.14.18-.15.48, 0, 1a3.47, 3.47, 0, 0, 0-.11, 1.56c-.43.37-.8, 0-1.2-.11C6, 69.36, 5.83, 69, 5.6, 69a9.72, 9.72, 0, 0, 1-1.26-3.47c.21-.12.07-.61, 0-1.07.21-.14.08-.64-.08-1.17.22-.12, 0-.67-.09-1.16.18-.3-.15-1.12, 0-1.43-.17-.41.06-.41-.19-.91.24-.47-.17-1.61.07-2.09-.14-.26, 0-.27-.14-.5.25-.16-.11-.95.28-1C4, 55.33, 4.73, 55.45, 5.17, 55.56Z" />
	<path d="M6.79, 1.24c.08.09.15.25.26.19, 1.19-1, 2-.13, 3.14-.78.88.48, 2-.23, 2.9.11a1.31, 1.31, 0, 0, 1, 1.16.08c.48-.25, 1, 0, 1.46, 0, 1.4, 0, 2.75-.6, 4.08-.32.68-.46, 1.13.24, 1.8-.24.78.51, 1.79-.15, 2.57.35, 1.77-.36, 3.32.43, 5.2-.47.08.09.15.25.26.2.46-.36.77, 0, 1.23-.35.11.21.24.3.4.22.36-.26.63, 0, .93.11a12.75, 12.75, 0, 0, 1, 3.92.89l.25-.17a9.72, 9.72, 0, 0, 0, 2, 1.2c.43, 1, 1.48, 1.74, 1.76, 2.6, 0, .06-.17.09-.11.2.45.83, 1.08, 1.49, 1.4, 2.24.79, 1.82.44, 3.42.91, 5.14-.33.35-.18.8, 0, 1.24-.5.37.13.95-.33, 1.33.39.9-.13, 1.63.39, 2.56-.39.36-.17.84, 0, 1.32-.42.33-.2.79, 0, 1.24-.31.36-.2.76-.22, 1.13a6.19, 6.19, 0, 0, 0, .3, 2.25c-.52.6.28, 1.46-.18, 2.08.22.24, 0, .4.32.65-.09.08-.25.14-.2.25.35.68-.41, 1.14, 0, 1.83a1.18, 1.18, 0, 0, 0, 0, 1.46c-.09.08-.25.15-.2.26a5.37, 5.37, 0, 0, 1, 0, 1.83c-.5.87-1.68, 1-2.52, 1.34-.57-.35-1.27, 0-1.84-.35-.19.23-.3, 0-.47.2-.08-.09-.15-.25-.26-.19-1.82.23-3.53-.13-5.38.21-.47-.34-1.05-.08-1.63.13-.33-.42-.79-.2-1.24, 0-.32-.36-.74-.19-1.15-.08-.32-.38-.73-.25-1.16-.07-.36-.5-.95.13-1.32-.33-1.33.45-2.44-.25-3.8.37-.1-.21-.23-.3-.39-.22-1.82.3-3.46-.26-5.3.15-.36-.49-.95.14-1.32-.32-.74.32-1.27-.51-2.06, 0-.33-.41-.79-.2-1.24, 0-.36-.38-.84-.16-1.32, 0-.25-.34-.56-.35-.93-.1-.15, 0-.23-.32-.39-.22-.79.3-1.4-.32-2.23.15-.37-.45-.94.08-1.32-.32a2.86, 2.86, 0, 0, 1-2.88-.63l-.25.17-.63-.92c.28-.48-.06-1.08-.26-1.66.3-.43.09-.95-.16-1.49.45-.79-.11-1.78.35-2.56-.43-.67.22-1.13-.24-1.8a.45.45, 0, 0, 0, .22-.4c-.31-1.57.21-3-.15-4.56.49-.42-.27-1.07.21-1.49-.39-.91.16-1.63-.38-2.56.42-.41.08-1, 0-1.47.09-.08.25-.14.2-.25C.64, 11.39.84, 10.25.41, 9c.55-.57, 0-1.36.8-1.89a.6.6, 0, 0, 1, .25-.9c-.4-.61.5-1, .29-1.55A12.27, 12.27, 0, 0, 1, 6.79, 1.24Z" />
</svg>